<?xml version="1.0" encoding="UTF-8"?>
<svg width="269.3" height="279.04" version="1.1" viewBox="0 0 215.44 223.23" xmlns="http://www.w3.org/2000/svg">
<path d="m47.66 0.17474h121.16c39.313-0.01943 46.63 6.7406 46.599 55.238v112.56c0.43575 33.044-4.0258 56.037-47.635 55.238h-119.09c-39.652 0.41973-47.147-14.154-47.635-54.196l-1.0355-86.505-0.025516-29.464c0.13833-47.452 4.451-52.759 41.439-53.047z" fill="#fff" stroke-width="1.0389"/>
<path d="m49.948 3.7374h117c37.964-0.01864 45.03 6.4675 45 53v108c0.4208 31.705-3.8876 53.766-46 53h-115c-38.292 0.40273-45.529-13.58-46-52l-1-83-0.02464-28.27c0.13358-45.53 4.2983-50.621 40.017-50.898z" fill="#020202"/>
<path d="m145.97 33.777c3.7396-3.6976 13.351-0.43716 14.977 4.9606 2.0184 6.7027 4.8723 15.974 0 21-9.1385 9.4266-26 26-26 26-6.4637 6.5057-21.456 20.407-14.349 27.24 14.564 14 39.864 35.624 41.349 41.76 0 0 0.64154 7.3899 0 11-2.1219 11.941-10.452 23.802-16 18-18.181-19.016-29.885-35.078-50-51-3.048-2.4127-5.9912 2.0228-6 10-2.2e-4 0.20187-5.2e-4 0.40615-6.5e-4 0.61273-0.0247 40.312 6.5e-4 40.387 6.5e-4 40.387s1.2849 5.9867-16 6c-16.583 0.0128-19.012-2.7674-19-15 0 0 0.06249-89.019 0.0042-130.81-0.0043-3.0946 1.8446-6.3741 4.337-8.2084 2.9107-2.1422 10.659-1.9858 10.659-1.9858s11.583 0.0182 17 0c0.9428-0.0032 2.0027 1.0572 2 2-0.0373 13.094-0.75197 27.952 0.45021 41.644 0.1605 1.8281 0.95299 3.6506 2.0843 5.0956 1.1361 1.4511 3.1774 4.578 4.4655 3.26 21.707-22.211 38.228-40.298 50.023-51.961z" fill="#fcfcfc"/>
</svg>
