<?xml version="1.0" encoding="UTF-8" standalone="no"?>
<svg
   version="1.1"
   viewBox="0 0 215.44302 223.23123"
   width="269.30377"
   height="279.03903"
   id="svg22"
   sodipodi:docname="logo.svg"
   inkscape:version="1.3.1 (9b9bdc1480, 2023-11-25, custom)"
   xmlns:inkscape="http://www.inkscape.org/namespaces/inkscape"
   xmlns:sodipodi="http://sodipodi.sourceforge.net/DTD/sodipodi-0.dtd"
   xmlns="http://www.w3.org/2000/svg"
   xmlns:svg="http://www.w3.org/2000/svg">
  <defs
     id="defs22">
    <rect
       x="502.66513"
       y="751.95178"
       width="274.64105"
       height="89.916473"
       id="rect25" />
    <inkscape:path-effect
       effect="fillet_chamfer"
       id="path-effect22"
       is_visible="true"
       lpeversion="1"
       nodesatellites_param="F,0,0,1,0,0,0,1 @ F,0,0,1,0,0,0,1 @ F,0,0,1,0,0,0,1 @ F,0,0,1,0,0,0,1 @ F,0,0,1,0,0,0,1 @ F,0,0,1,0,0,0,1 @ F,0,0,1,0,0,0,1 @ F,0,0,1,0,0,0,1 @ F,0,0,1,0,0,0,1 @ F,0,0,1,0,0,0,1 @ F,0,0,1,0,0,0,1 @ F,0,0,1,0,0,0,1 @ F,0,0,1,0,0,0,1 @ F,0,0,1,0,0,0,1 @ F,0,0,1,0,0,0,1 @ F,0,0,1,0,0,0,1 @ F,0,0,1,0,0,0,1 @ F,0,0,1,0,0,0,1 @ F,0,0,1,0,0,0,1 @ F,0,0,1,0,0,0,1 @ F,0,0,1,0,0,0,1 @ F,0,0,1,0,0,0,1 @ F,0,0,1,0,0,0,1 @ F,0,0,1,0,0,0,1 @ F,0,0,1,0,0,0,1 @ F,0,0,1,0,0,0,1 @ F,0,0,1,0,0,0,1 @ F,0,0,1,0,0,0,1 @ F,0,0,1,0,0,0,1 @ F,0,0,1,0,0,0,1 @ F,0,0,1,0,0,0,1 @ F,0,0,1,0,0,0,1 @ F,0,0,1,0,0,0,1 @ F,0,0,1,0,0,0,1 @ F,0,0,1,0,0,0,1 @ F,0,0,1,0,0,0,1 @ F,0,0,1,0,0,0,1 @ F,0,0,1,0,0,0,1 @ F,0,0,1,0,0,0,1 @ F,0,0,1,0,0,0,1 @ F,0,0,1,0,0,0,1 @ F,0,0,1,0,0,0,1 @ F,0,0,1,0,3.7508406,0,1 @ F,0,0,1,0,0,0,1 @ F,0,0,1,0,0,0,1"
       radius="0"
       unit="px"
       method="auto"
       mode="F"
       chamfer_steps="1"
       flexible="false"
       use_knot_distance="true"
       apply_no_radius="true"
       apply_with_radius="true"
       only_selected="false"
       hide_knots="false" />
  </defs>
  <sodipodi:namedview
     id="namedview22"
     pagecolor="#c3c3c3"
     bordercolor="#000000"
     borderopacity="0.25"
     inkscape:showpageshadow="2"
     inkscape:pageopacity="0.0"
     inkscape:pagecheckerboard="0"
     inkscape:deskcolor="#d1d1d1"
     showguides="false"
     inkscape:zoom="1.8375"
     inkscape:cx="77.823129"
     inkscape:cy="177.95918"
     inkscape:window-width="1683"
     inkscape:window-height="1376"
     inkscape:window-x="0"
     inkscape:window-y="27"
     inkscape:window-maximized="0"
     inkscape:current-layer="svg22" />
  <path
     d="M 47.660042,0.17474 H 168.8174 c 39.31261,-0.01943 46.62967,6.740582 46.599,55.237964 V 167.97309 c 0.43575,33.04389 -4.02578,56.03658 -47.63453,55.23797 H 48.695576 C 9.043373,223.63079 1.548464,209.05724 1.061049,169.01531 L 0.025516,82.510575 0,53.04674 C 0.138327,5.594272 4.451011,0.287975 41.439284,0 Z"
     fill="#020202"
     id="path2-3"
     sodipodi:nodetypes="ccccccccccc"
     style="fill:#ffffff;fill-opacity:1;stroke-width:1.03887" />
  <path
     d="M 49.948124,3.737396 H 166.94812 c 37.96364,-0.01864 45.02962,6.467488 45,53 V 164.73739 c 0.4208,31.70512 -3.88764,53.76626 -46,53 H 50.948124 c -38.291581,0.40273 -45.529312,-13.58037 -46,-52 l -1,-82.999995 -0.02464,-28.270106 C 4.057059,8.937356 8.221766,3.846044 43.940824,3.569736 Z"
     fill="#020202"
     id="path2"
     sodipodi:nodetypes="ccccccccccc" />
  <path
     d="m 145.97124,33.776817 c 3.73965,-3.697593 13.35148,-0.437161 14.97688,4.960579 2.01836,6.702704 4.87232,15.974023 0,21 -9.13846,9.426643 -26,25.999999 -26,25.999999 -6.46373,6.50569 -21.45648,20.407415 -14.34884,27.239775 14.56373,13.99967 39.86392,35.62446 41.34884,41.76023 0,0 0.64154,7.3899 0,11 -2.12193,11.94068 -10.45226,23.80232 -16,18 -18.18145,-19.01577 -29.88495,-35.07786 -49.999996,-51 -3.04799,-2.41266 -5.99125,2.02281 -6,10 -2.2e-4,0.20187 -5.2e-4,0.40615 -6.5e-4,0.61273 -0.0247,40.31173 6.5e-4,40.38727 6.5e-4,40.38727 0,0 1.28486,5.98667 -16,6 -16.582543,0.0128 -19.011674,-2.76742 -19,-15 0,0 0.06249,-89.018635 0.0042,-130.805856 -0.0043,-3.094556 1.844617,-6.374111 4.336958,-8.208378 2.910746,-2.142211 10.658842,-1.98577 10.658842,-1.98577 0,0 11.582537,0.0182 17,0 0.9428,-0.0032 2.00268,1.057195 2,2 -0.0373,13.093997 -0.75197,27.95216 0.45021,41.644412 0.1605,1.828095 0.95299,3.650634 2.08426,5.095597 1.1361,1.45113 3.17739,4.57802 4.46553,3.25999 C 117.6556,63.526361 134.17639,45.439039 145.97124,33.776817 Z"
     fill="#fcfcfc"
     id="path3"
     sodipodi:nodetypes="ssscscssssscscsacsssass" />
</svg>
