<?xml version="1.0" encoding="UTF-8" standalone="no"?>
<svg
   version="1.1"
   viewBox="0 0 208.85039 268.58511"
   width="261.06299"
   height="335.73138"
   id="svg22"
   sodipodi:docname="2ipjcIWabYczA2ERVZGFeTJt6Wj.svg"
   inkscape:version="1.3.1 (9b9bdc1480, 2023-11-25, custom)"
   xmlns:inkscape="http://www.inkscape.org/namespaces/inkscape"
   xmlns:sodipodi="http://sodipodi.sourceforge.net/DTD/sodipodi-0.dtd"
   xmlns="http://www.w3.org/2000/svg"
   xmlns:svg="http://www.w3.org/2000/svg">
  <defs
     id="defs22">
    <rect
       x="502.66513"
       y="751.95178"
       width="274.64105"
       height="89.916473"
       id="rect25" />
    <inkscape:path-effect
       effect="fillet_chamfer"
       id="path-effect22"
       is_visible="true"
       lpeversion="1"
       nodesatellites_param="F,0,0,1,0,0,0,1 @ F,0,0,1,0,0,0,1 @ F,0,0,1,0,0,0,1 @ F,0,0,1,0,0,0,1 @ F,0,0,1,0,0,0,1 @ F,0,0,1,0,0,0,1 @ F,0,0,1,0,0,0,1 @ F,0,0,1,0,0,0,1 @ F,0,0,1,0,0,0,1 @ F,0,0,1,0,0,0,1 @ F,0,0,1,0,0,0,1 @ F,0,0,1,0,0,0,1 @ F,0,0,1,0,0,0,1 @ F,0,0,1,0,0,0,1 @ F,0,0,1,0,0,0,1 @ F,0,0,1,0,0,0,1 @ F,0,0,1,0,0,0,1 @ F,0,0,1,0,0,0,1 @ F,0,0,1,0,0,0,1 @ F,0,0,1,0,0,0,1 @ F,0,0,1,0,0,0,1 @ F,0,0,1,0,0,0,1 @ F,0,0,1,0,0,0,1 @ F,0,0,1,0,0,0,1 @ F,0,0,1,0,0,0,1 @ F,0,0,1,0,0,0,1 @ F,0,0,1,0,0,0,1 @ F,0,0,1,0,0,0,1 @ F,0,0,1,0,0,0,1 @ F,0,0,1,0,0,0,1 @ F,0,0,1,0,0,0,1 @ F,0,0,1,0,0,0,1 @ F,0,0,1,0,0,0,1 @ F,0,0,1,0,0,0,1 @ F,0,0,1,0,0,0,1 @ F,0,0,1,0,0,0,1 @ F,0,0,1,0,0,0,1 @ F,0,0,1,0,0,0,1 @ F,0,0,1,0,0,0,1 @ F,0,0,1,0,0,0,1 @ F,0,0,1,0,0,0,1 @ F,0,0,1,0,0,0,1 @ F,0,0,1,0,3.7508406,0,1 @ F,0,0,1,0,0,0,1 @ F,0,0,1,0,0,0,1"
       radius="0"
       unit="px"
       method="auto"
       mode="F"
       chamfer_steps="1"
       flexible="false"
       use_knot_distance="true"
       apply_no_radius="true"
       apply_with_radius="true"
       only_selected="false"
       hide_knots="false" />
  </defs>
  <sodipodi:namedview
     id="namedview22"
     pagecolor="#ffffff"
     bordercolor="#000000"
     borderopacity="0.25"
     inkscape:showpageshadow="2"
     inkscape:pageopacity="0.0"
     inkscape:pagecheckerboard="0"
     inkscape:deskcolor="#d1d1d1"
     showguides="false"
     inkscape:zoom="1.2993087"
     inkscape:cx="106.21032"
     inkscape:cy="158.54585"
     inkscape:window-width="1280"
     inkscape:window-height="1376"
     inkscape:window-x="0"
     inkscape:window-y="27"
     inkscape:window-maximized="0"
     inkscape:current-layer="svg22" />
  <path
     d="m 46.02464,0.16766006 h 117 c 37.96364,-0.0186365 45.02962,6.46748804 45,52.99999994 v 108 c 0.4208,31.70512 -3.88764,53.76626 -46,53 h -115 c -38.291581,0.40273 -45.529312,-13.58037 -46,-52 l -1,-83 L 0,50.897553 C 0.133575,5.3676196 4.298282,0.27630754 40.01734,0 Z"
     fill="#020202"
     id="path2"
     sodipodi:nodetypes="ccccccccccc" />
  <path
     d="m 142.04776,30.207081 c 3.73965,-3.697593 13.35148,-0.437161 14.97688,4.960579 2.01836,6.702704 4.87232,15.974023 0,21 -9.13846,9.426643 -26,26 -26,26 -6.46373,6.505688 -21.45648,20.40741 -14.34884,27.23977 14.56373,13.99967 39.86392,35.62446 41.34884,41.76023 0,0 0.64154,7.3899 0,11 -2.12193,11.94069 -10.45226,23.80232 -16,18 -18.18145,-19.01577 -29.88495,-35.07785 -50,-51 -3.047989,-2.41265 -5.99125,2.02281 -6,10 -2.21e-4,0.20188 -5.19e-4,0.40615 -6.46e-4,0.61273 -0.02475,40.31173 6.46e-4,40.38727 6.46e-4,40.38727 0,0 1.284865,5.98667 -16,6 -16.582543,0.0128 -19.011674,-2.76742 -19,-15 0,0 0.06249,-89.018636 0.0042,-130.805852 -0.0043,-3.094556 1.844617,-6.374111 4.336958,-8.208378 2.910746,-2.142211 10.658842,-1.98577 10.658842,-1.98577 0,0 11.582537,0.0182 17,0 0.942804,-0.0032 2.002682,1.057195 2,2 -0.03725,13.093997 -0.751966,27.95216 0.450209,41.644412 0.160506,1.828095 0.95299,3.650634 2.084263,5.095597 1.136101,1.451128 3.177386,4.578015 4.465528,3.259991 21.70748,-22.211035 38.22827,-40.298357 50.02312,-51.960579 z"
     fill="#fcfcfc"
     id="path3"
     sodipodi:nodetypes="ssscscssssscscsacsssass" />
  <text
     xml:space="preserve"
     style="font-size:9.6px;fill:#000000;stroke-width:0.8"
     x="11.347638"
     y="326.93073"
     id="text23"><tspan
       sodipodi:role="line"
       id="tspan23"
       style="stroke-width:0.8"
       x="11.347638"
       y="326.93073" /></text>
  <text
     xml:space="preserve"
     style="font-style:normal;font-variant:normal;font-weight:bold;font-stretch:normal;font-size:51.2px;font-family:Monospace;-inkscape-font-specification:'Monospace Bold';fill:#000000;stroke-width:0.8"
     x="13.983136"
     y="267.86011"
     id="text24"><tspan
       sodipodi:role="line"
       id="tspan24"
       style="font-style:normal;font-variant:normal;font-weight:bold;font-stretch:normal;font-size:51.2px;font-family:Monospace;-inkscape-font-specification:'Monospace Bold';stroke-width:0.8"
       x="13.983136"
       y="267.86011">Kharon</tspan></text>
  <text
     xml:space="preserve"
     transform="matrix(0.8,0,0,0.8,-407.97536,-360.83234)"
     id="text25"
     style="font-style:normal;font-variant:normal;font-weight:bold;font-stretch:normal;font-family:Monospace;-inkscape-font-specification:'Monospace Bold';white-space:pre;shape-inside:url(#rect25);display:inline;fill:#000000" />
</svg>
